HIERARCHY
ROOT joint_Root
{
	OFFSET 0.0 0.0 0.0
	CHANNELS 6 Xposition Yposition Zposition Zrotation Xrotation Yrotation 
	JOINT Hips
	{
		OFFSET -0.726466 93.3139 -2.00062
		CHANNELS 6 Xposition Yposition Zposition Zrotation Xrotation Yrotation 
		JOINT Spine
		{
			OFFSET 15.7357 0.0 0.0
			CHANNELS 6 Xposition Yposition Zposition Zrotation Xrotation Yrotation 
			JOINT Chest
			{
				OFFSET 8.98455 -0.406207 0.0
				CHANNELS 6 Xposition Yposition Zposition Zrotation Xrotation Yrotation 
				JOINT Neck
				{
					OFFSET 16.3773 0.0 0.0
					CHANNELS 6 Xposition Yposition Zposition Zrotation Xrotation Yrotation 
					JOINT Head
					{
						OFFSET 6.45672 0.0 0.0
						CHANNELS 6 Xposition Yposition Zposition Zrotation Xrotation Yrotation 
						End Site
						{
							OFFSET 0.0 0.0 0.0
						}
					}
				}
				JOINT Shoulder_L
				{
					OFFSET 12.9942 -0.242716 4.98039
					CHANNELS 6 Xposition Yposition Zposition Zrotation Xrotation Yrotation 
					JOINT UpperArm_L
					{
						OFFSET 5.34809 0.0 0.0
						CHANNELS 6 Xposition Yposition Zposition Zrotation Xrotation Yrotation 
						JOINT LowerArm_L
						{
							OFFSET 24.3286 1.87007e-05 0.0
							CHANNELS 6 Xposition Yposition Zposition Zrotation Xrotation Yrotation 
							JOINT Hand_L
							{
								OFFSET 22.2916 0.0 0.0
								CHANNELS 6 Xposition Yposition Zposition Zrotation Xrotation Yrotation 
								End Site
								{
									OFFSET 0.0 0.0 0.0
								}
							}
						}
					}
				}
				JOINT Shoulder_R
				{
					OFFSET 12.9945 -0.242716 -4.98039
					CHANNELS 6 Xposition Yposition Zposition Zrotation Xrotation Yrotation 
					JOINT UpperArm_R
					{
						OFFSET -5.34813 0.0 0.0
						CHANNELS 6 Xposition Yposition Zposition Zrotation Xrotation Yrotation 
						JOINT LowerArm_R
						{
							OFFSET -24.3289 0.000322201 0.0
							CHANNELS 6 Xposition Yposition Zposition Zrotation Xrotation Yrotation 
							JOINT Hand_R
							{
								OFFSET -22.2915 -0.000108084 0.0
								CHANNELS 6 Xposition Yposition Zposition Zrotation Xrotation Yrotation 
								End Site
								{
									OFFSET 0.0 0.0 0.0
								}
							}
						}
					}
				}
			}
		}
		JOINT UpperLeg_L
		{
			OFFSET -2.19248 -6.46944 0.0
			CHANNELS 6 Xposition Yposition Zposition Zrotation Xrotation Yrotation 
			JOINT LowerLeg_L
			{
				OFFSET 39.0811 0.0 -1.23785e-05
				CHANNELS 6 Xposition Yposition Zposition Zrotation Xrotation Yrotation 
				JOINT Foot_L
				{
					OFFSET 40.9854 0.0 -1.26872e-05
					CHANNELS 6 Xposition Yposition Zposition Zrotation Xrotation Yrotation 
					JOINT Toes_L
					{
						OFFSET 11.7543 0.0 0.0
						CHANNELS 6 Xposition Yposition Zposition Zrotation Xrotation Yrotation 
						End Site
						{
							OFFSET 0.0 0.0 0.0
						}
					}
				}
			}
		}
		JOINT UpperLeg_R
		{
			OFFSET -2.19251 6.46944 0.0
			CHANNELS 6 Xposition Yposition Zposition Zrotation Xrotation Yrotation 
			JOINT LowerLeg_R
			{
				OFFSET -39.0811 -0.00228153 -0.0401928
				CHANNELS 6 Xposition Yposition Zposition Zrotation Xrotation Yrotation 
				JOINT Foot_R
				{
					OFFSET -40.9854 0.0 0.0
					CHANNELS 6 Xposition Yposition Zposition Zrotation Xrotation Yrotation 
					JOINT Toes_R
					{
						OFFSET -11.7543 0.0 0.0
						CHANNELS 6 Xposition Yposition Zposition Zrotation Xrotation Yrotation 
						End Site
						{
							OFFSET 0.0 0.0 0.0
						}
					}
				}
			}
		}
	}
}
MOTION
Frames:	7
Frame Time:	0.0333333
0.000000 0.000000 0.000000 0.000000 0.000000 -0.000000 -0.693535 93.002700 -1.435390 89.072600 -3.403970 1.303120 15.735700 0.000005 -0.000001 97.108900 86.660100 -97.132200 8.984550 -0.406207 -0.000000 -1.137380 0.828306 -0.038371 16.377300 -0.000001 -0.000001 1.682200 -1.948960 1.656610 6.456720 -0.000001 -0.000000 8.397570 -1.584770 -3.728980 12.994200 -0.242716 4.980390 -90.128400 0.376154 -71.156600 5.348090 -0.000007 -0.000001 -69.118500 38.097000 -11.775700 24.328600 0.000019 0.000005 3.465080 8.610130 -22.020100 22.291600 -0.000001 0.000005 4.887600 5.449570 -4.622260 12.994500 -0.242716 -4.980390 87.730900 7.243840 -72.554600 -5.348130 -0.000001 -0.000004 -65.462900 38.086100 -11.717400 -24.328900 0.000322 -0.000009 3.144380 9.065590 -19.227000 -22.291500 -0.000108 -0.000004 9.181250 5.375090 -2.144890 -2.192480 -6.469440 -0.000000 -177.008000 -10.359300 -3.261640 39.081100 -0.000007 -0.000012 -0.060575 0.197001 17.091800 40.985400 -0.000006 -0.000013 -0.180243 3.480080 -62.603500 11.754300 -0.000000 0.000003 -0.000001 -0.000014 -16.578000 -2.192510 6.469440 -0.000001 179.138000 11.365000 179.119000 -39.081100 -0.002282 -0.040193 -0.049322 0.210185 14.063800 -40.985400 0.000008 0.000006 0.859981 7.212000 -62.107000 -11.754300 -0.000006 -0.000006 -0.006231 -0.072920 -19.541000
0.000000 0.000000 0.000000 0.000000 0.000000 -0.000000 -0.702823 93.006100 -1.424440 89.049000 -3.435470 1.335900 15.735700 0.000005 -0.000001 96.899500 86.626800 -96.866000 8.984550 -0.406207 -0.000000 -1.068660 0.807695 0.074419 16.377300 -0.000001 -0.000001 1.650220 -1.901830 1.590610 6.456720 -0.000001 -0.000000 8.274710 -1.500520 -3.796990 12.994200 -0.242716 4.980390 -90.051600 0.149548 -70.967200 5.348090 -0.000007 -0.000001 -68.374100 36.431700 -12.579500 24.328600 0.000019 0.000005 4.268220 9.887380 -23.490500 22.291600 -0.000001 0.000005 3.266920 5.427830 -3.861510 12.994500 -0.242716 -4.980390 87.756300 7.129290 -72.479400 -5.348130 -0.000001 -0.000004 -65.662800 37.832900 -11.843500 -24.328900 0.000322 -0.000009 3.192400 9.188360 -19.260000 -22.291500 -0.000108 -0.000004 9.295290 5.375400 -2.154450 -2.192480 -6.469440 -0.000000 -176.972000 -10.381600 -3.208200 39.081100 -0.000007 -0.000012 -0.059839 0.194815 17.074700 40.985400 -0.000006 -0.000013 -0.187622 3.472350 -62.602500 11.754300 -0.000000 0.000003 -0.000001 -0.000009 -16.577800 -2.192510 6.469440 -0.000001 179.160000 11.400700 179.198000 -39.081100 -0.002282 -0.040193 -0.048883 0.209612 13.987900 -40.985400 0.000008 0.000006 0.871542 7.258590 -62.076500 -11.754300 -0.000006 -0.000006 -0.006373 -0.074191 -19.592800
0.000000 0.000000 0.000000 0.000000 0.000000 -0.000000 -0.732691 93.014300 -1.442160 89.067100 -3.456380 1.361950 15.735700 0.000005 -0.000001 97.177300 86.591200 -97.089100 8.984550 -0.406207 -0.000000 -1.002430 0.844878 0.183768 16.377300 -0.000001 -0.000001 1.570950 -1.765170 1.406690 6.456720 -0.000001 -0.000000 8.113520 -1.503320 -3.745660 12.994200 -0.242716 4.980390 -89.982600 -0.049367 -70.568200 5.348090 -0.000007 -0.000001 -66.012800 34.187200 -14.712300 24.328600 0.000019 0.000005 4.971870 10.655600 -25.194800 22.291600 -0.000001 0.000005 1.000190 5.409770 -3.252280 12.994500 -0.242716 -4.980390 87.751000 7.091150 -72.352500 -5.348130 -0.000001 -0.000004 -65.851400 37.413600 -11.786500 -24.328900 0.000322 -0.000009 3.243770 9.242370 -19.442300 -22.291500 -0.000108 -0.000004 9.421050 5.376490 -2.188300 -2.192480 -6.469440 -0.000000 -176.978000 -10.321300 -3.127080 39.081100 -0.000007 -0.000012 -0.058597 0.192018 16.970100 40.985400 -0.000006 -0.000013 -0.219116 3.385760 -62.551300 11.754300 -0.000000 0.000003 -0.000000 -0.000005 -16.577600 -2.192510 6.469440 -0.000001 179.146000 11.468800 179.251000 -39.081100 -0.002282 -0.040193 -0.048655 0.209668 13.925700 -40.985400 0.000008 0.000006 0.900442 7.364870 -62.046400 -11.754300 -0.000006 -0.000006 -0.006376 -0.074217 -19.593900
0.000000 0.000000 0.000000 0.000000 0.000000 -0.000000 -0.791696 93.026300 -1.483850 89.054000 -3.381140 1.339810 15.735700 0.000005 -0.000001 97.668800 86.583700 -97.506900 8.984550 -0.406207 -0.000000 -0.995749 0.899227 0.331580 16.377300 -0.000001 -0.000001 1.660320 -1.671840 1.178510 6.456720 -0.000001 -0.000000 7.809830 -1.549930 -3.765840 12.994200 -0.242716 4.980390 -89.913000 -0.241358 -70.173100 5.348090 -0.000007 -0.000001 -61.989500 31.011400 -18.212500 24.328600 0.000019 0.000005 5.563460 11.129400 -26.776600 22.291600 -0.000001 0.000005 -0.755007 5.397450 -2.854510 12.994500 -0.242716 -4.980390 87.747600 7.049200 -72.229800 -5.348130 -0.000001 -0.000004 -66.191100 36.809400 -11.530600 -24.328900 0.000322 -0.000009 3.294510 9.288580 -19.633800 -22.291500 -0.000108 -0.000004 9.522430 5.380030 -2.299180 -2.192480 -6.469440 -0.000000 -176.934000 -10.222300 -3.157150 39.081100 -0.000007 -0.000012 -0.059455 0.195755 16.894500 40.985400 -0.000006 -0.000013 -0.266023 3.370590 -62.464700 11.754300 -0.000000 0.000003 -0.000001 -0.000013 -16.578000 -2.192510 6.469440 -0.000001 179.213000 11.588500 179.255000 -39.081100 -0.002282 -0.040193 -0.047356 0.205943 13.827200 -40.985400 0.000008 0.000006 0.987538 7.382680 -61.987300 -11.754300 -0.000006 -0.000006 -0.005928 -0.070177 -19.429100
0.000000 0.000000 0.000000 0.000000 0.000000 -0.000000 -0.871395 93.020500 -1.517930 89.064400 -3.188430 1.377040 15.735700 0.000005 -0.000001 97.537500 86.581000 -97.288000 8.984550 -0.406207 -0.000000 -0.989004 0.877721 0.506536 16.377300 -0.000001 -0.000001 1.768350 -1.547090 0.871254 6.456720 -0.000001 -0.000000 7.711660 -1.472030 -3.851040 12.994200 -0.242716 4.980390 -89.793300 -0.564867 -69.900100 5.348090 -0.000007 -0.000001 -57.472700 26.194300 -22.254300 24.328600 0.000019 0.000005 6.010350 11.342200 -28.162200 22.291600 -0.000001 0.000005 -0.242812 5.396540 -2.824600 12.994500 -0.242716 -4.980390 87.762100 6.955420 -72.115000 -5.348130 -0.000001 -0.000004 -66.278200 36.777700 -11.460000 -24.328900 0.000322 -0.000009 3.294700 9.263490 -19.683500 -22.291500 -0.000108 -0.000004 9.436490 5.377900 -2.232330 -2.192480 -6.469440 -0.000000 -176.880000 -10.150800 -3.201940 39.081100 -0.000007 -0.000012 -0.059637 0.195548 16.960400 40.985400 -0.000006 -0.000013 -0.293626 3.528720 -62.448100 11.754300 -0.000000 0.000003 -0.000001 -0.000014 -16.578000 -2.192510 6.469440 -0.000001 179.235000 11.821300 179.254000 -39.081100 -0.002282 -0.040193 -0.048235 0.208331 13.902600 -40.985400 0.000008 0.000006 1.010960 7.436330 -62.026800 -11.754300 -0.000006 -0.000006 -0.006205 -0.072686 -19.531500
0.000000 0.000000 0.000000 0.000000 0.000000 -0.000000 -0.980484 93.022700 -1.547100 89.091600 -2.976000 1.450180 15.735700 0.000005 -0.000001 97.218300 86.587700 -96.885700 8.984550 -0.406207 -0.000000 -0.997818 0.831907 0.672250 16.377300 -0.000001 -0.000001 1.901880 -1.379180 0.599475 6.456720 -0.000001 -0.000000 7.732990 -1.333200 -3.919340 12.994200 -0.242716 4.980390 -89.595500 -1.096050 -69.741900 5.348090 -0.000007 -0.000001 -53.544400 19.443900 -26.254000 24.328600 0.000019 0.000005 6.292410 11.315600 -29.334800 22.291600 -0.000001 0.000005 1.131510 5.402620 -3.020800 12.994500 -0.242716 -4.980390 87.768400 6.868030 -71.950900 -5.348130 -0.000001 -0.000004 -66.241500 37.000500 -11.459400 -24.328900 0.000322 -0.000009 3.314940 9.363450 -19.602000 -22.291500 -0.000108 -0.000004 9.432400 5.378410 -2.248580 -2.192480 -6.469440 -0.000000 -176.803000 -10.151700 -3.141830 39.081100 -0.000007 -0.000012 -0.060720 0.199713 16.910900 40.985400 -0.000006 -0.000013 -0.345199 3.741050 -62.378700 11.754300 -0.000000 0.000003 -0.000001 -0.000008 -16.577800 -2.192510 6.469440 -0.000001 179.273000 12.023200 179.335000 -39.081100 -0.002282 -0.040193 -0.047855 0.206698 13.909000 -40.985400 0.000008 0.000006 1.084660 7.359580 -62.053300 -11.754300 -0.000006 -0.000006 -0.006202 -0.072655 -19.530200
0.000000 0.000000 0.000000 0.000000 0.000000 -0.000000 -1.071280 93.027400 -1.586770 89.110700 -2.828780 1.448100 15.735700 0.000005 -0.000001 97.036300 86.607800 -96.632900 8.984550 -0.406207 -0.000000 -1.035440 0.799922 0.813856 16.377300 -0.000001 -0.000001 1.962560 -1.298470 0.513137 6.456720 -0.000001 -0.000000 7.690790 -1.183370 -4.009320 12.994200 -0.242716 4.980390 -89.395900 -1.607020 -69.396300 5.348090 -0.000007 -0.000001 -49.907000 11.695400 -30.669400 24.328600 0.000019 0.000005 6.320510 10.918500 -30.317900 22.291600 -0.000001 0.000005 1.715250 5.397030 -2.841140 12.994500 -0.242716 -4.980390 87.730900 6.895460 -71.735200 -5.348130 -0.000001 -0.000004 -66.030600 37.100500 -11.515200 -24.328900 0.000322 -0.000009 3.299650 9.379240 -19.488000 -22.291500 -0.000108 -0.000004 9.514910 5.380200 -2.304760 -2.192480 -6.469440 -0.000000 -176.753000 -10.147400 -3.164790 39.081100 -0.000007 -0.000012 -0.060164 0.198524 16.859700 40.985400 -0.000006 -0.000013 -0.385475 3.908130 -62.302200 11.754300 -0.000000 0.000003 -0.000001 -0.000010 -16.577900 -2.192510 6.469440 -0.000001 179.325000 12.183600 179.312000 -39.081100 -0.002282 -0.040193 -0.047743 0.206206 13.911600 -40.985400 0.000008 0.000006 1.155040 7.341500 -62.049200 -11.754300 -0.000006 -0.000006 -0.006297 -0.073509 -19.565000
